<svg xmlns="http://www.w3.org/2000/svg" width="210" height="210" viewBox="82.6 6.26 1080 1080">
    <g transform="matrix(2.76 0 0 2.76 626.83 581.1)">
        <path
            style="stroke: none; stroke-width: 1; stroke-dasharray: none; stroke-linecap: butt; stroke-dashoffset: 0; stroke-linejoin: miter; stroke-miterlimit: 4; fill: rgb(192,142,58); fill-rule: nonzero; opacity: 1;"
            vector-effect="non-scaling-stroke" transform=" translate(-195.78, -96.5)"
            d="M 195.207 109.838 C 169.827 109.839 144.447 109.76299999999999 119.06899999999999 109.928 C 115.62799999999999 109.95 113.61899999999999 108.82 113.52399999999999 105.608 C 113.33699999999999 99.304 113.44599999999998 92.98 113.72999999999999 86.678 C 113.841 84.22 115.39899999999999 83.05799999999999 118.22399999999999 83.063 C 169.634 83.15 221.045 83.141 272.455 83.087 C 274.767 83.08500000000001 276.079 83.762 276.711 86.051 C 278.628 92.999 278.538 99.895 276.743 106.858 C 276.006 109.71900000000001 274.138 109.873 271.735 109.869 C 246.226 109.818 220.717 109.837 195.207 109.838 z M 275.653 99.438 C 221.872 99.438 168.57600000000002 99.438 115.30400000000003 99.438 C 114.72000000000003 106.38300000000001 115.73300000000003 107.537 122.10500000000003 107.533 C 132.78000000000003 107.527 143.45400000000004 107.527 154.12900000000002 107.526 C 192.79200000000003 107.524 231.455 107.478 270.11800000000005 107.59899999999999 C 273.40400000000005 107.609 274.9870000000001 106.61599999999999 275.24100000000004 103.42099999999999 C 275.332 102.274 275.476 101.132 275.653 99.438 z M 115.846 86.62 C 116.024 87.033 116.20100000000001 87.44500000000001 116.379 87.858 C 169.1 87.858 221.822 87.858 274.543 87.858 C 274.611 87.364 274.67900000000003 86.869 274.748 86.375 C 273.108 86.061 271.468 85.474 269.827 85.472 C 227.757 85.42299999999999 185.688 85.43599999999999 143.618 85.43799999999999 C 135.543 85.43799999999999 127.467 85.38899999999998 119.393 85.49 C 118.205 85.504 117.028 86.226 115.846 86.62 z M 275.268 95.161 C 275.282 94.85 275.29499999999996 94.538 275.30899999999997 94.227 C 221.90599999999998 94.227 168.503 94.227 115.09999999999997 94.227 C 115.09999999999997 94.53800000000001 115.09999999999997 94.85000000000001 115.09999999999997 95.161 C 168.489 95.161 221.878 95.161 275.268 95.161 z"
            stroke-linecap="round" />
    </g>
    <g transform="matrix(2.76 0 0 2.76 357.52 581.12)">
        <path
            style="stroke: none; stroke-width: 1; stroke-dasharray: none; stroke-linecap: butt; stroke-dashoffset: 0; stroke-linejoin: miter; stroke-miterlimit: 4; fill: rgb(192,142,58); fill-rule: nonzero; opacity: 1;"
            vector-effect="non-scaling-stroke" transform=" translate(-98.05, -96.49)"
            d="M 76.369 160.69 C 74.68599999999999 157.871 72.841 155.133 71.367 152.209 C 69.909 149.316 68.827 146.235 67.4 143.304 C 69.47500000000001 155.109 72.641 166.562 79.727 176.46 C 90.33200000000001 191.273 106.929 191.374 117.801 176.684 C 125.433 166.371 128.668 154.245 130.835 141.872 C 132.27100000000002 133.675 132.985 125.35100000000001 134.024 117.08500000000001 C 134.189 115.77000000000001 134.36 114.45500000000001 135.374 113.19000000000001 C 135.483 113.85900000000001 135.72299999999998 114.53600000000002 135.683 115.19700000000002 C 134.715 131.376 132.84699999999998 147.449 126.97299999999998 162.661 C 124.60999999999999 168.78 121.49899999999998 174.864 117.54799999999999 180.066 C 107.13699999999999 193.775 89.53699999999999 193.52100000000002 78.83499999999998 180.025 C 73.22599999999998 172.952 69.98199999999999 164.73600000000002 67.48599999999998 156.185 C 61.208999999999975 134.681 60.14399999999998 112.60300000000001 60.473999999999975 90.4 C 60.75999999999998 71.203 62.56399999999998 52.187000000000005 68.49699999999997 33.790000000000006 C 71.39699999999998 24.799000000000007 75.21499999999997 16.257000000000005 82.22899999999997 9.592000000000006 C 91.89799999999997 0.40400000000000524 104.83499999999998 0.4580000000000055 114.42199999999997 9.758000000000006 C 121.25099999999996 16.383000000000006 125.07199999999997 24.784000000000006 127.99199999999996 33.638000000000005 C 132.67699999999996 47.843 134.74299999999997 62.522000000000006 135.61499999999995 77.399 C 135.66099999999994 78.187 135.44499999999996 78.99 134.48499999999996 79.838 C 134.31299999999996 78.39399999999999 134.09399999999997 76.954 133.97499999999997 75.505 C 132.69199999999998 59.876 130.70899999999997 44.32899999999999 124.59399999999997 29.769999999999996 C 122.11199999999997 23.859999999999996 118.81099999999996 17.964999999999996 114.61699999999996 13.171999999999997 C 105.31299999999996 2.5399999999999974 92.69399999999996 2.735999999999997 82.92999999999996 12.937999999999997 C 80.88899999999997 15.069999999999997 79.25699999999996 17.595 77.36999999999996 20.023999999999997 C 77.98599999999996 20.290999999999997 78.20699999999997 20.480999999999998 78.40099999999997 20.455999999999996 C 80.08499999999997 20.236999999999995 81.76399999999997 19.979999999999997 83.44399999999997 19.733999999999995 C 83.29999999999997 21.468999999999994 83.45799999999997 23.297999999999995 82.95599999999997 24.922999999999995 C 81.22999999999998 30.513999999999996 79.43699999999997 36.099 77.31399999999998 41.547 C 76.57699999999998 43.439 75.08199999999998 45.483 73.37299999999998 46.340999999999994 C 72.62999999999998 46.71399999999999 70.47399999999998 44.267999999999994 68.25899999999997 42.56399999999999 C 66.57999999999997 53.73899999999999 64.90299999999998 64.90199999999999 63.22599999999997 76.066 C 63.57299999999997 76.126 63.91899999999997 76.186 64.26599999999998 76.24600000000001 C 66.37699999999998 68.81300000000002 66.82599999999998 60.77100000000001 71.48499999999997 54.27300000000001 C 71.93899999999996 54.31800000000001 72.39399999999998 54.36400000000001 72.84799999999997 54.40900000000001 C 73.02399999999997 56.362000000000016 73.40199999999997 58.32100000000001 73.34199999999997 60.26700000000001 C 73.07299999999996 68.99000000000001 72.68399999999997 77.71000000000001 72.32899999999997 86.43 C 71.41099999999996 108.94500000000001 74.01299999999996 131.17000000000002 77.75199999999997 153.31 C 78.12499999999997 155.52 78.04099999999997 157.80700000000002 78.16899999999997 160.058 C 77.571 160.266 76.97 160.478 76.369 160.69 z"
            stroke-linecap="round" />
    </g>
    <g transform="matrix(2.76 0 0 2.76 890.87 581.23)">
        <path
            style="stroke: none; stroke-width: 1; stroke-dasharray: none; stroke-linecap: butt; stroke-dashoffset: 0; stroke-linejoin: miter; stroke-miterlimit: 4; fill: rgb(192,142,58); fill-rule: nonzero; opacity: 1;"
            vector-effect="non-scaling-stroke" transform=" translate(-291.59, -96.53)"
            d="M 322.293 143.337 C 319.218 149.113 317.784 155.83999999999997 312.818 160.47199999999998 C 312.377 160.36799999999997 311.936 160.265 311.495 160.16099999999997 C 311.611 157.81899999999996 311.485 155.43499999999997 311.882 153.14199999999997 C 315.919 129.83999999999997 318.197 106.41199999999998 317.18 82.73299999999996 C 316.867 75.44399999999996 316.467 68.15899999999996 316.21500000000003 60.86799999999997 C 316.14200000000005 58.746999999999964 316.44300000000004 56.612999999999964 316.59200000000004 54.164999999999964 C 320.60900000000004 56.48999999999997 322.75600000000003 62.45199999999996 325.26700000000005 76.83899999999997 C 325.619 76.78799999999997 325.97100000000006 76.73799999999997 326.32300000000004 76.68699999999997 C 324.701 65.39399999999998 323.08000000000004 54.10099999999997 321.458 42.80799999999997 C 321.02700000000004 42.79999999999997 320.59700000000004 42.79199999999997 320.16600000000005 42.78399999999997 C 319.72900000000004 43.51599999999997 319.33500000000004 44.27899999999997 318.84600000000006 44.97499999999997 C 317.19300000000004 47.32699999999997 315.36400000000003 47.20199999999997 313.90400000000005 44.931999999999974 C 312.86400000000003 43.315999999999974 312.18300000000005 41.43599999999997 311.53800000000007 39.604999999999976 C 309.8950000000001 34.939999999999976 308.24000000000007 30.271999999999977 306.8450000000001 25.529999999999976 C 306.2950000000001 23.660999999999976 306.4220000000001 21.592999999999975 306.24000000000007 19.614999999999977 C 308.05800000000005 19.777999999999977 309.87500000000006 19.939999999999976 311.5520000000001 20.08999999999998 C 304.33400000000006 4.511999999999979 286.54100000000005 -0.031000000000020123 274.7120000000001 13.159999999999979 C 266.7090000000001 22.08399999999998 262.7640000000001 33.02299999999998 260.3850000000001 44.41999999999998 C 258.2350000000001 54.71799999999998 257.1830000000001 65.24599999999998 255.66100000000012 75.67499999999998 C 255.4620000000001 77.03799999999998 255.3440000000001 78.41299999999998 255.06200000000013 80.90399999999998 C 254.29900000000012 79.54099999999998 253.90800000000013 79.17399999999998 253.93000000000012 78.83299999999998 C 255.25900000000013 58.32299999999998 257.6680000000001 38.021999999999984 267.8010000000001 19.625999999999983 C 269.9630000000001 15.700999999999983 272.89600000000013 11.995999999999984 276.1660000000001 8.926999999999984 C 285.1080000000001 0.5359999999999836 297.9060000000001 0.7879999999999843 306.8850000000001 9.149999999999984 C 315.1070000000001 16.806999999999984 319.2290000000001 26.796999999999983 322.1620000000001 37.27699999999999 C 329.5220000000001 63.573999999999984 330.19900000000007 90.46599999999998 328.4870000000001 117.48299999999999 C 327.44700000000006 133.90099999999998 325.28100000000006 150.21599999999998 318.7560000000001 165.476 C 316.23500000000007 171.37199999999999 312.9340000000001 177.274 308.7060000000001 182.033 C 298.59600000000006 193.41199999999998 283.2610000000001 192.89399999999998 273.1400000000001 181.505 C 265.0940000000001 172.45 261.0680000000001 161.385 258.7770000000001 149.83599999999998 C 256.5530000000001 138.62199999999999 255.4790000000001 127.17999999999998 253.9380000000001 115.83299999999998 C 253.8230000000001 114.98999999999998 254.0160000000001 114.10499999999999 254.9440000000001 113.09799999999998 C 255.16700000000012 114.47499999999998 255.4870000000001 115.84399999999998 255.5970000000001 117.22999999999999 C 256.7450000000001 131.67499999999998 258.2090000000001 146.129 263.44900000000007 159.732 C 266.03400000000005 166.443 269.34900000000005 173.184 273.7320000000001 178.824 C 283.0080000000001 190.76100000000002 298.35800000000006 190.467 308.0200000000001 178.782 C 316.513 168.515 319.72 156.042 322.293 143.337 z"
            stroke-linecap="round" />
    </g>
    <g transform="matrix(2.76 0 0 2.76 1005.64 580.61)">
        <path
            style="stroke: none; stroke-width: 1; stroke-dasharray: none; stroke-linecap: butt; stroke-dashoffset: 0; stroke-linejoin: miter; stroke-miterlimit: 4; fill: rgb(192,142,58); fill-rule: nonzero; opacity: 1;"
            vector-effect="non-scaling-stroke" transform=" translate(-333.22, -96.32)"
            d="M 318.173 171.978 C 322.329 168.89100000000002 326.147 166.791 328.967 163.761 C 331.92699999999996 160.581 334.269 156.682 336.25899999999996 152.78 C 338.22299999999996 148.928 339.40999999999997 144.678 340.26899999999995 140.341 C 338.16399999999993 143.5 336.05899999999997 146.65900000000002 333.9549999999999 149.818 C 333.53899999999993 149.693 333.1219999999999 149.568 332.7059999999999 149.443 C 332.62799999999993 147.744 332.3809999999999 146.03300000000002 332.4979999999999 144.348 C 333.65699999999987 127.60900000000001 335.0619999999999 110.88500000000002 335.99899999999985 94.13500000000002 C 336.44899999999984 86.08700000000002 335.98999999999984 77.99100000000001 336.0649999999998 69.91900000000001 C 336.08799999999985 67.41400000000002 336.5169999999998 64.91400000000002 337.3469999999998 62.35700000000001 C 342.4139999999998 66.97900000000001 342.4869999999998 73.51600000000002 345.5299999999998 78.98600000000002 C 344.1279999999998 70.38200000000002 342.72599999999983 61.777000000000015 341.2959999999998 53.00100000000002 C 339.38699999999983 54.54100000000002 337.6979999999998 56.58400000000002 337.04299999999984 56.29400000000002 C 335.59999999999985 55.65400000000002 334.25099999999986 54.01000000000002 333.62499999999983 52.46700000000002 C 331.57599999999985 47.41100000000002 329.85699999999986 42.22100000000002 328.03499999999985 37.07400000000002 C 327.09999999999985 34.43100000000002 326.19099999999986 31.76000000000002 331.5269999999999 31.99600000000002 C 331.4109999999999 31.59100000000002 331.29499999999985 31.18600000000002 331.1779999999999 30.78100000000002 C 327.0749999999999 27.68600000000002 322.9709999999999 24.59100000000002 318.8679999999999 21.49600000000002 C 318.99899999999985 21.21600000000002 319.1299999999999 20.93600000000002 319.26099999999985 20.65500000000002 C 320.72199999999987 21.137000000000018 322.29499999999985 21.41400000000002 323.62699999999984 22.134000000000018 C 331.60299999999984 26.447000000000017 336.3179999999998 33.545000000000016 339.57399999999984 41.67400000000002 C 347.28499999999985 60.92400000000002 348.55699999999985 81.16100000000003 348.2289999999998 101.57800000000003 C 348.0079999999998 115.28400000000003 346.6979999999998 128.88200000000003 342.85799999999983 142.12500000000003 C 340.48199999999986 150.31800000000004 337.31199999999984 158.12100000000004 331.6229999999998 164.65800000000002 C 327.675 169.195 323.384 171.715 318.173 171.978 z"
            stroke-linecap="round" />
    </g>
    <g transform="matrix(2.76 0 0 2.76 242.31 581.13)">
        <path
            style="stroke: none; stroke-width: 1; stroke-dasharray: none; stroke-linecap: butt; stroke-dashoffset: 0; stroke-linejoin: miter; stroke-miterlimit: 4; fill: rgb(192,142,58); fill-rule: nonzero; opacity: 1;"
            vector-effect="non-scaling-stroke" transform=" translate(-56.24, -96.5)"
            d="M 70.708 21.47 C 66.527 24.657 62.346 27.845 58.165 31.031999999999996 C 58.123 31.417999999999996 58.080999999999996 31.804999999999996 58.04 32.190999999999995 C 63.121 31.660999999999994 62.583999999999996 34.184 61.583999999999996 36.974 C 59.741 42.114999999999995 58.035 47.312 55.995 52.373 C 55.367 53.931 54.055 55.583999999999996 52.616 56.271 C 51.985 56.572 50.251 54.561 48.302 53.042 C 46.891 61.566 45.491 70.022 44.091 78.479 C 44.257 78.494 44.423 78.51 44.59 78.525 C 46.629000000000005 73.379 48.652 68.226 50.743 63.101000000000006 C 50.888000000000005 62.745000000000005 51.54 62.595000000000006 52.574000000000005 61.98500000000001 C 52.89900000000001 64.24900000000001 53.36900000000001 66.08800000000001 53.395 67.93400000000001 C 53.551 79.263 53.241 90.61100000000002 53.791000000000004 101.918 C 54.404 114.51400000000001 55.819 127.069 56.769000000000005 139.651 C 57.008 142.817 56.80500000000001 146.017 56.80500000000001 149.20100000000002 C 56.41400000000001 149.40300000000002 56.02300000000001 149.60600000000002 55.632000000000005 149.80800000000002 C 53.349000000000004 146.26600000000002 51.06700000000001 142.72400000000002 48.36600000000001 138.53300000000002 C 52.03900000000001 152.649 57.22800000000001 164.834 71.186 171.281 C 70.712 171.776 70.23800000000001 172.27100000000002 69.76400000000001 172.76600000000002 C 66.95100000000001 171.14800000000002 63.88100000000001 169.85200000000003 61.37600000000001 167.84900000000002 C 54.509000000000015 162.36 50.85200000000001 154.68 48.15000000000001 146.57700000000003 C 42.003000000000014 128.14500000000004 40.88300000000001 109.05800000000002 41.405000000000015 89.83200000000002 C 41.86700000000002 72.82400000000003 43.936000000000014 56.07900000000002 50.585000000000015 40.17700000000002 C 53.20900000000002 33.90000000000002 57.015000000000015 28.544000000000022 62.375000000000014 24.429000000000023 C 64.63700000000001 22.69200000000002 67.39800000000001 21.607000000000024 69.93200000000002 20.226000000000024 C 70.189 20.64 70.448 21.055 70.708 21.47 z"
            stroke-linecap="round" />
    </g>
    <g transform="matrix(2.76 0 0 2.76 183.27 579.43)">
        <path
            style="stroke: none; stroke-width: 1; stroke-dasharray: none; stroke-linecap: butt; stroke-dashoffset: 0; stroke-linejoin: miter; stroke-miterlimit: 4; fill: rgb(192,142,58); fill-rule: nonzero; opacity: 1;"
            vector-effect="non-scaling-stroke" transform=" translate(-34.82, -95.88)"
            d="M 45.559 147.162 C 40.925 147.073 37.97 144.46 35.405 141.376 C 30.085 134.979 27.604 127.30600000000001 26.097 119.31200000000001 C 22.745 101.53300000000002 22.967000000000002 83.83200000000002 27.979000000000003 66.35100000000001 C 29.791000000000004 60.03200000000001 32.458000000000006 54.042000000000016 37.435 49.539000000000016 C 39.616 47.56600000000002 42.370000000000005 46.22600000000001 44.864000000000004 44.59900000000002 C 45.17 45.01900000000002 45.476000000000006 45.43900000000002 45.782000000000004 45.859000000000016 C 42.412000000000006 48.756000000000014 39.042 51.652000000000015 35.672000000000004 54.549000000000014 C 39.434000000000005 54.83900000000001 39.303000000000004 56.82400000000001 38.6 59.06800000000001 C 37.589 62.29700000000001 36.604 65.54 35.419000000000004 68.70600000000002 C 34.086000000000006 72.27000000000001 32.81100000000001 72.43900000000002 29.344000000000005 69.10400000000001 C 28.351000000000006 75.11400000000002 27.432000000000006 80.68200000000002 26.512000000000004 86.24900000000001 C 26.658000000000005 86.30600000000001 26.803000000000004 86.36300000000001 26.949000000000005 86.41900000000001 C 28.679000000000006 82.80600000000001 30.410000000000004 79.19400000000002 32.14000000000001 75.58100000000002 C 32.583000000000006 75.71900000000002 33.02600000000001 75.85800000000002 33.46800000000001 75.99600000000002 C 34.65700000000001 94.57100000000003 35.84700000000001 113.14600000000002 37.11700000000001 132.98600000000002 C 34.54800000000001 130.223 32.57800000000001 128.10500000000002 30.60800000000001 125.98600000000002 C 30.36000000000001 126.11500000000002 30.11100000000001 126.24300000000002 29.86300000000001 126.37200000000001 C 31.946000000000012 130.34 33.58300000000001 134.644 36.24000000000001 138.181 C 38.798 141.587 42.41 144.201 45.559 147.162 z"
            stroke-linecap="round" />
    </g>
    <g transform="matrix(2.76 0 0 2.76 1064.95 581.66)">
        <path
            style="stroke: none; stroke-width: 1; stroke-dasharray: none; stroke-linecap: butt; stroke-dashoffset: 0; stroke-linejoin: miter; stroke-miterlimit: 4; fill: rgb(192,142,58); fill-rule: nonzero; opacity: 1;"
            vector-effect="non-scaling-stroke" transform=" translate(-354.76, -96.69)"
            d="M 363.086 86.303 C 362.19800000000004 80.818 361.31 75.333 360.425 69.87 C 358.74 70.501 357.225 71.634 356.252 71.27900000000001 C 355.209 70.89900000000002 354.464 69.20200000000001 353.964 67.93200000000002 C 352.86899999999997 65.15200000000002 351.933 62.301000000000016 351.082 59.43500000000002 C 350.443 57.28200000000002 349.477 54.74800000000002 354.349 55.53500000000002 C 354.214 55.195000000000014 354.078 54.85500000000002 353.943 54.515000000000015 C 350.56 51.62600000000001 347.176 48.737000000000016 343.793 45.84900000000002 C 344.032 45.57700000000002 344.271 45.30500000000002 344.509 45.033000000000015 C 348.88100000000003 46.067000000000014 352.129 48.86700000000002 354.79400000000004 52.41800000000001 C 359.588 58.80300000000001 362.11600000000004 66.162 363.52200000000005 73.92200000000001 C 366.72 91.57000000000001 366.67800000000005 109.144 361.708 126.49700000000001 C 359.90400000000005 132.798 357.25800000000004 138.80800000000002 352.298 143.32600000000002 C 350.114 145.31600000000003 347.373 146.693 344.885 148.348 C 344.596 147.965 344.308 147.58100000000002 344.019 147.198 C 347.25 144.14700000000002 350.968 141.458 353.576 137.94400000000002 C 356.207 134.39800000000002 357.735 130.03400000000002 359.055 125.68300000000002 C 357.122 127.89900000000002 355.19 130.116 353.257 132.33200000000002 C 353.023 132.15200000000002 352.789 131.972 352.555 131.79200000000003 C 353.747 113.21400000000003 354.94 94.63700000000003 356.132 76.05900000000003 C 356.523 75.89000000000003 356.915 75.72000000000003 357.306 75.55000000000003 C 359.07 79.10900000000002 360.834 82.66900000000003 362.59799999999996 86.22800000000002 C 362.762 86.255 362.924 86.279 363.086 86.303 z"
            stroke-linecap="round" />
    </g>
    <g transform="matrix(2.76 0 0 2.76 903.62 585.08)">
        <path
            style="stroke: none; stroke-width: 1; stroke-dasharray: none; stroke-linecap: butt; stroke-dashoffset: 0; stroke-linejoin: miter; stroke-miterlimit: 4; fill: rgb(192,142,58); fill-rule: nonzero; opacity: 1;"
            vector-effect="non-scaling-stroke" transform=" translate(-296.2, -97.93)"
            d="M 282.001 12.263 C 286.753 11.318999999999999 290.202 12.689 292.137 15.748 C 295.859 21.633 300.008 27.588 302.081 34.117 C 310.685 61.208999999999996 311.415 89.16999999999999 309.591 117.27099999999999 C 308.559 133.171 306.168 148.875 300.772 163.93699999999998 C 298.829 169.35899999999998 296.029 174.474 293.462 180.076 C 299.929 180.827 303.75399999999996 176.237 308.12399999999997 171.98 C 304.383 181.76399999999998 293.195 186.725 285.181 182.21599999999998 C 295.08 177.13299999999998 297.837 167.49099999999999 300.606 158.08899999999997 C 308.173 132.39999999999998 309.351 106.05499999999998 307.84 79.51299999999998 C 306.86699999999996 62.42599999999997 304.35499999999996 45.57999999999998 298.289 29.469999999999978 C 296.88 25.728999999999978 294.912 22.134999999999977 292.762 18.751999999999978 C 289.892 14.236 287.84 13.184 282.001 12.263 z"
            stroke-linecap="round" />
    </g>
    <g transform="matrix(2.76 0 0 2.76 343.99 585.3)">
        <path
            style="stroke: none; stroke-width: 1; stroke-dasharray: none; stroke-linecap: butt; stroke-dashoffset: 0; stroke-linejoin: miter; stroke-miterlimit: 4; fill: rgb(192,142,58); fill-rule: nonzero; opacity: 1;"
            vector-effect="non-scaling-stroke" transform=" translate(-93.15, -98.01)"
            d="M 80.857 171.233 C 85.462 175.854 89.315 180.805 96.139 180.092 C 81.091 152.28 79.292 122.265 79.267 91.97 C 79.253 74.734 80.71799999999999 57.545 85.557 40.949 C 87.82300000000001 33.179 91.441 25.718999999999998 95.168 18.491999999999997 C 97.41000000000001 14.143999999999998 101.358 11.126999999999997 107.025 12.306999999999999 C 100.816 12.517999999999999 97.078 16.569 95.11200000000001 21.534 C 91.444 30.798 87.60900000000001 40.209999999999994 85.71400000000001 49.926 C 78.66300000000001 86.076 79.29800000000002 122.163 88.88900000000001 157.897 C 89.59500000000001 160.528 90.46300000000001 163.134 91.492 165.655 C 94.208 172.312 97.034 178.933 104.474 182.02100000000002 C 96.834 187.051 85.513 181.958 80.857 171.233 z"
            stroke-linecap="round" />
    </g>
    <g transform="matrix(2.76 0 0 2.76 874.05 581.61)">
        <path
            style="stroke: none; stroke-width: 1; stroke-dasharray: none; stroke-linecap: butt; stroke-dashoffset: 0; stroke-linejoin: miter; stroke-miterlimit: 4; fill: rgb(192,142,58); fill-rule: nonzero; opacity: 1;"
            vector-effect="non-scaling-stroke" transform=" translate(-285.47, -96.66)"
            d="M 280.395 127.478 C 288.399 106.39399999999999 288.513 86.359 280.00399999999996 66.065 C 282.78499999999997 65.202 284.881 66.999 285.68499999999995 69.47 C 287.518 75.106 289.33799999999997 80.847 290.17099999999994 86.686 C 291.59299999999996 96.65400000000001 291.06499999999994 106.677 288.45599999999996 116.464 C 287.729 119.192 286.67999999999995 121.966 285.14099999999996 124.297 C 284.173 125.763 282.017 126.444 280.395 127.478 z"
            stroke-linecap="round" />
    </g>
    <g transform="matrix(2.76 0 0 2.76 375.35 580.83)">
        <path
            style="stroke: none; stroke-width: 1; stroke-dasharray: none; stroke-linecap: butt; stroke-dashoffset: 0; stroke-linejoin: miter; stroke-miterlimit: 4; fill: rgb(192,142,58); fill-rule: nonzero; opacity: 1;"
            vector-effect="non-scaling-stroke" transform=" translate(-104.52, -96.4)"
            d="M 110.121 126.618 C 106.17 127.624 104.22999999999999 125.347 103.375 122.6 C 101.724 117.29599999999999 100.085 111.88499999999999 99.417 106.399 C 98.008 94.82300000000001 98.497 83.272 102.522 72.14699999999999 C 103.71600000000001 68.84799999999998 105.278 65.62599999999999 110.34700000000001 65.958 C 104.251 75.566 103.45200000000001 85.972 103.45400000000001 96.49 C 103.458 106.929 104.252 117.258 110.121 126.618 z"
            stroke-linecap="round" />
    </g>
    <g transform="matrix(2.76 0 0 2.76 121.25 580.78)">
        <path
            style="stroke: none; stroke-width: 1; stroke-dasharray: none; stroke-linecap: butt; stroke-dashoffset: 0; stroke-linejoin: miter; stroke-miterlimit: 4; fill: rgb(192,142,58); fill-rule: nonzero; opacity: 1;"
            vector-effect="non-scaling-stroke" transform=" translate(-12.32, -96.37)"
            d="M 5.531 95.616 C 9.82 95.616 14.11 95.648 18.399 95.603 C 20.594 95.58 22.035 96.082 21.047 99.134 C 15.991 99.134 10.844000000000001 99.134 5.783000000000001 99.134 C 4.532000000000002 105.837 5.8450000000000015 107.462 12.094000000000001 107.461 C 14.437000000000001 107.46 16.783 107.386 19.121000000000002 107.5 C 20.062 107.546 20.983000000000004 108.005 21.914 108.277 C 21.857000000000003 108.735 21.801000000000002 109.193 21.744 109.65 C 16.433 109.65 11.116999999999999 109.747 5.8149999999999995 109.52300000000001 C 5.177999999999999 109.49600000000001 4.3469999999999995 107.79700000000001 4.061 106.74900000000001 C 2.202 99.952 2.315 93.113 3.971 86.29 C 4.481 84.18900000000001 5.559 82.968 8.06 83.072 C 12.578 83.261 17.109 83.125 21.634 83.125 C 21.738 83.517 21.842 83.909 21.946 84.301 C 21.026 84.70100000000001 20.118000000000002 85.406 19.183 85.44500000000001 C 15.805 85.58600000000001 12.411 85.393 9.036 85.56800000000001 C 7.973 85.62300000000002 6.949999999999999 86.436 5.909 86.903 C 6.045 87.37400000000001 6.181 87.845 6.317 88.31500000000001 C 11.280000000000001 88.31500000000001 16.242 88.31500000000001 21.1 88.31500000000001 C 21.905 93.64900000000002 21.794 93.79200000000002 17.144000000000002 93.808 C 13.277000000000001 93.82100000000001 9.409000000000002 93.811 5.541000000000002 93.811 C 5.539 94.414 5.535 95.015 5.531 95.616 z"
            stroke-linecap="round" />
    </g>
    <g transform="matrix(2.76 0 0 2.76 1127.1 581.39)">
        <path
            style="stroke: none; stroke-width: 1; stroke-dasharray: none; stroke-linecap: butt; stroke-dashoffset: 0; stroke-linejoin: miter; stroke-miterlimit: 4; fill: rgb(192,142,58); fill-rule: nonzero; opacity: 1;"
            vector-effect="non-scaling-stroke" transform=" translate(-377.31, -96.59)"
            d="M 384.006 99.157 C 379.941 99.157 375.803 99.29299999999999 371.68399999999997 99.072 C 370.49999999999994 99.00800000000001 369.371 97.916 368.21599999999995 97.295 C 369.33399999999995 96.724 370.4309999999999 95.715 371.573 95.66 C 375.73699999999997 95.461 379.916 95.582 384.09 95.582 C 384.099 95.00099999999999 384.109 94.419 384.118 93.838 C 380.263 93.838 376.408 93.826 372.553 93.841 C 367.908 93.86 367.793 93.74 368.304 88.431 C 373.205 88.431 378.17699999999996 88.431 383.149 88.431 C 383.302 87.957 383.455 87.483 383.608 87.009 C 382.637 86.511 381.688 85.642 380.69100000000003 85.584 C 377.451 85.397 374.192 85.568 370.944 85.46900000000001 C 369.85400000000004 85.436 368.77700000000004 85.007 367.694 84.75900000000001 C 367.742 84.27600000000001 367.79 83.79300000000002 367.838 83.31000000000002 C 373.13300000000004 83.31000000000002 378.434 83.19000000000001 383.716 83.45200000000001 C 384.43 83.48700000000001 385.355 85.36700000000002 385.659 86.52900000000001 C 387.405 93.19600000000001 387.342 99.894 385.653 106.58500000000001 C 385.064 108.917 383.85400000000004 110.01100000000001 381.26000000000005 109.893 C 376.81300000000005 109.691 372.35100000000006 109.837 367.89500000000004 109.837 C 367.819 109.382 367.744 108.928 367.66800000000006 108.473 C 368.5420000000001 108.137 369.40100000000007 107.565 370.29100000000005 107.512 C 372.62300000000005 107.374 374.96900000000005 107.46 377.31000000000006 107.46 C 383.724 107.462 384.777 106.241 384.006 99.157 z"
            stroke-linecap="round" />
    </g>
    <g transform="matrix(2.76 0 0 2.76 839.76 688.96)">
        <path
            style="stroke: none; stroke-width: 1; stroke-dasharray: none; stroke-linecap: butt; stroke-dashoffset: 0; stroke-linejoin: miter; stroke-miterlimit: 4; fill: rgb(192,142,58); fill-rule: nonzero; opacity: 1;"
            vector-effect="non-scaling-stroke" transform=" translate(-273.03, -135.64)"
            d="M 286.441 151.024 C 285.779 152.123 285.19199999999995 153.277 284.44199999999995 154.312 C 280.12899999999996 160.26600000000002 275.33599999999996 160.34900000000002 270.96099999999996 154.38400000000001 C 265.41099999999994 146.816 263.58099999999996 137.823 261.81999999999994 128.888 C 260.79599999999994 123.69200000000001 260.33099999999996 118.38600000000001 259.62199999999996 113.184 C 262.80299999999994 111.728 263.88399999999996 112.417 264.37399999999997 115.529 C 265.58599999999996 123.21799999999999 267.013 130.89 268.794 138.465 C 269.584 141.826 271.171 145.086 272.865 148.13 C 276.504 154.671 280.079 155.273 286.441 151.024 z"
            stroke-linecap="round" />
    </g>
    <g transform="matrix(2.76 0 0 2.76 407.87 472.75)">
        <path
            style="stroke: none; stroke-width: 1; stroke-dasharray: none; stroke-linecap: butt; stroke-dashoffset: 0; stroke-linejoin: miter; stroke-miterlimit: 4; fill: rgb(192,142,58); fill-rule: nonzero; opacity: 1;"
            vector-effect="non-scaling-stroke" transform=" translate(-116.31, -57.17)"
            d="M 129.852 80.191 C 128.269 80.191 127.15700000000001 80.191 125.989 80.191 C 124.79700000000001 73.474 123.933 66.767 122.342 60.237 C 121.119 55.222 119.42999999999999 50.206 117.142 45.591 C 113.628 38.502 109.865 37.766 102.777 42.585 C 104.94500000000001 38.375 106.824 35.035000000000004 111.08500000000001 34.261 C 114.897 33.568000000000005 117.135 36.139 118.959 38.92100000000001 C 124.977 48.098000000000006 126.96000000000001 58.60600000000001 128.625 69.182 C 129.185 72.741 129.433 76.348 129.852 80.191 z"
            stroke-linecap="round" />
    </g>
    <g transform="matrix(2.76 0 0 2.76 839.45 472.96)">
        <path
            style="stroke: none; stroke-width: 1; stroke-dasharray: none; stroke-linecap: butt; stroke-dashoffset: 0; stroke-linejoin: miter; stroke-miterlimit: 4; fill: rgb(192,142,58); fill-rule: nonzero; opacity: 1;"
            vector-effect="non-scaling-stroke" transform=" translate(-272.93, -57.25)"
            d="M 263.91 80.366 C 262.439 80.281 261.34400000000005 80.218 259.77000000000004 80.127 C 261.069 65.935 262.84400000000005 52.230999999999995 269.99300000000005 39.885 C 271.76700000000005 36.821 274.172 33.751 278.16700000000003 34.165 C 282.64700000000005 34.629 284.90000000000003 38.033 286.08900000000006 41.445 C 283.56700000000006 40.838 280.4680000000001 39.071 278.20900000000006 39.825 C 275.77200000000005 40.638000000000005 273.58900000000006 43.517 272.22400000000005 46.004000000000005 C 267.65200000000004 54.334 266.15700000000004 63.61300000000001 264.85200000000003 72.896 C 264.528 75.199 264.268 77.513 263.91 80.366 z"
            stroke-linecap="round" />
    </g>
    <g transform="matrix(2.76 0 0 2.76 408.73 689.08)">
        <path
            style="stroke: none; stroke-width: 1; stroke-dasharray: none; stroke-linecap: butt; stroke-dashoffset: 0; stroke-linejoin: miter; stroke-miterlimit: 4; fill: rgb(192,142,58); fill-rule: nonzero; opacity: 1;"
            vector-effect="non-scaling-stroke" transform=" translate(-116.64, -135.67)"
            d="M 103.488 151.056 C 110.168 155.103 113.36 154.287 116.918 147.917 C 121.754 139.25900000000001 123.34400000000001 129.627 124.781 119.98 C 125.01100000000001 118.43900000000001 125.159 116.88600000000001 125.384 115.34400000000001 C 125.839 112.218 125.85 112.22000000000001 129.784 113.07100000000001 C 128.398 127.25400000000002 126.835 141.39000000000001 118.99 153.90300000000002 C 117.229 156.71300000000002 114.896 159.27800000000002 111.161 158.657 C 107.422 158.038 105.317 155.279 103.488 151.056 z"
            stroke-linecap="round" />
    </g>
</svg>